<?xml version="1.0" encoding="UTF-8" standalone="no"?>
<!-- Created with Inkscape (http://www.inkscape.org/) -->

<svg
   width="210mm"
   height="297mm"
   viewBox="0 0 210 297"
   version="1.1"
   id="svg5"
   sodipodi:docname="spring.svg"
   inkscape:version="1.2.1 (9c6d41e4, 2022-07-14)"
   xmlns:inkscape="http://www.inkscape.org/namespaces/inkscape"
   xmlns:sodipodi="http://sodipodi.sourceforge.net/DTD/sodipodi-0.dtd"
   xmlns="http://www.w3.org/2000/svg"
   xmlns:svg="http://www.w3.org/2000/svg">
  <sodipodi:namedview
     id="namedview7"
     pagecolor="#ffffff"
     bordercolor="#666666"
     borderopacity="1.0"
     inkscape:showpageshadow="2"
     inkscape:pageopacity="0.0"
     inkscape:pagecheckerboard="0"
     inkscape:deskcolor="#d1d1d1"
     inkscape:document-units="mm"
     showgrid="false"
     inkscape:zoom="0.2102413"
     inkscape:cx="233.06553"
     inkscape:cy="577.90738"
     inkscape:window-width="1309"
     inkscape:window-height="1117"
     inkscape:window-x="1568"
     inkscape:window-y="131"
     inkscape:window-maximized="0"
     inkscape:current-layer="layer1" />
  <defs
     id="defs2" />
  <g
     inkscape:label="Layer 1"
     inkscape:groupmode="layer"
     id="layer1">
    <path
       style="opacity:0.522976;fill:#fcfff8;fill-opacity:1;fill-rule:evenodd;stroke:#100d06;stroke-width:6.584;stroke-linecap:round;stroke-linejoin:bevel;stroke-dasharray:none"
       d="m 107.79585,287.74916 c 4.08754,-0.58899 8.02493,-1.53671 11.24193,-2.76825 3.2178,-1.23168 5.70163,-2.74566 7.09849,-4.38368 1.39605,-1.63787 1.69475,-3.39706 0.85856,-5.08437 -0.837,-1.68732 -2.81208,-3.29864 -5.63534,-4.66368 -2.82247,-1.36506 -6.48831,-2.47956 -10.46404,-3.2457 -3.97573,-0.76629 -8.25015,-1.18133 -12.204788,-1.24924 -3.95472,-0.0677 -7.57584,0.21257 -10.34232,0.7367 -2.7664,0.52429 -4.66505,1.29074 -5.42649,2.12569 -0.76144,0.83481 -0.37705,1.73478 1.09121,2.50732 1.46833,0.77271 4.02221,1.41373 7.28681,1.76956 3.26468,0.35584 7.23409,0.42236 11.331048,0.12971 4.09713,-0.29267 8.31085,-0.94681 12.03101,-1.92795 3.72015,-0.98114 6.93316,-2.28927 9.17819,-3.79592 2.24503,-1.5065 3.50931,-3.20907 3.61633,-4.92278 0.10702,-1.71356 -0.9504,-3.43444 -3.01334,-4.97588 -2.06214,-1.54144 -5.12979,-2.89901 -8.75251,-3.93966 -3.62352,-1.04065 -7.79491,-1.76071 -11.90961,-2.1199 -4.113888,-0.35904 -8.158218,-0.35553 -11.548848,-0.0537 -3.39071,0.30197 -6.1139,0.90148 -7.77998,1.64886 -1.66616,0.74722 -2.26428,1.6394 -1.714,2.48489 0.55019,0.84548 2.25365,1.64032 4.85792,2.20794 2.60419,0.56778 6.10639,0.90408 9.99578,0.89981 3.889388,-0.005 8.156228,-0.35217 12.183068,-1.05361 4.02604,-0.70145 7.79811,-1.75751 10.77312,-3.07557 2.9742,-1.31805 5.13777,-2.89687 6.18322,-4.56892 1.04464,-1.67206 0.96078,-3.43414 -0.23241,-5.09308 -1.1932,-1.65908 -3.49973,-3.21059 -6.57856,-4.49323 -3.07963,-1.28271 -6.92757,-2.29232 -10.98396,-2.94646 -4.05639,-0.65416 -8.30989,-0.95021 -12.145528,-0.90927 -3.83572,0.0409 -7.23953,0.41934 -9.72224,1.01679 -2.48279,0.59743 -4.03179,1.41205 -4.42865,2.26313 -0.39685,0.85107 0.36611,1.73486 2.17228,2.46194 1.80616,0.72692 4.65594,1.29256 8.13203,1.55425 3.476,0.26169 7.571288,0.21561 11.691328,-0.19165 4.11948,-0.40725 8.25095,-1.17798 11.79859,-2.26058 3.54685,-1.08246 6.4955,-2.47676 8.42266,-4.04152 1.92797,-1.56475 2.82247,-3.29751 2.5613,-5.00901 -0.26116,-1.71152 -1.68437,-3.39778 -4.05718,-4.87729 -2.37282,-1.4795 -5.69365,-2.74794 -9.47769,-3.68518 -3.78405,-0.93724 -8.02174,-1.53992 -12.09985,-1.78472 -4.077958,-0.24479 -7.982438,-0.1303 -11.150558,0.26313 -3.16813,0.39342 -5.58623,1.06478 -6.90921,1.85376 -1.32298,0.78896 -1.54085,1.69251 -0.62814,2.51763 0.91263,0.82513 2.95935,1.56757 5.83828,2.05873 2.87892,0.49116 6.58598,0.72685 10.58127,0.61257 3.995218,-0.11429 8.268048,-0.58147 12.200638,-1.39398 3.9318,-0.81252 7.5098,-1.97113 10.21805,-3.36852 2.70825,-1.39736 4.53399,-3.0319 5.21844,-4.7281 0.68525,-1.69621 0.22043,-3.45063 -1.32098,-5.07145 -1.54062,-1.62083 -4.15862,-3.10371 -7.47066,-4.29715 -3.31124,-1.19345 -7.31013,-2.09356 -11.41444,-2.63373 -4.10511,-0.54032 -8.303498,-0.71839 -11.989548,-0.57236 -3.68606,0.14587 -6.84531,0.61584 -9.02453,1.27839 -2.17923,0.66253 -3.36635,1.51531 -3.39542,2.37231 -0.0291,0.85703 1.10638,1.71439 3.236,2.38641 2.12971,0.67199 5.25255,1.15429 8.91224,1.31639 3.65962,0.16211 7.847868,4.6e-4 11.956968,-0.5217 4.1099,-0.52217 8.12716,-1.40655 11.47274,-2.58531 3.34559,-1.17879 6.00672,-2.65133 7.60084,-4.26525 1.59493,-1.61392 2.11246,-3.36639 1.48551,-5.06545 -0.62775,-1.69922 -2.40476,-3.34075 -5.06909,-4.7499 -2.66353,-1.40931 -6.21197,-2.58178 -10.1262,-3.41155 -3.91423,-0.82993 -8.18546,-1.31378 -12.194488,-1.44561 -4.00911,-0.13199 -7.74252,0.0891 -10.66282,0.56747 -2.92022,0.47836 -5.01391,1.21276 -5.98324,2.03368 -0.96925,0.82107 -0.80505,1.72531 0.46274,2.51999 1.2678,0.79467 3.64141,1.47552 6.77208,1.88277 3.13058,0.40726 7.01294,0.53696 11.082108,0.31022 4.06965,-0.2269 8.31453,-0.813 12.12094,-1.73355 3.80641,-0.92041 7.16078,-2.1759 9.58071,-3.64487 2.41994,-1.46896 3.89347,-3.1494 4.21293,-4.85975 0.31946,-1.7102 -0.52312,-3.44635 -2.39917,-5.01952 -1.87525,-1.57303 -4.78477,-2.97883 -8.30207,-4.07699 -3.51729,-1.09803 -7.63518,-1.88492 -11.75546,-2.31033 -4.12013,-0.42541 -8.230428,-0.48751 -11.737338,-0.24124 -3.50691,0.24628 -6.39646,0.80078 -8.25478,1.51962 -1.85824,0.71883 -2.67399,1.59972 -2.33504,2.45238 0.33895,0.85266 1.83787,1.67328 4.27394,2.28149 2.43607,0.60837 5.80714,0.9999 9.62121,1.05775 3.814078,0.0578 8.062228,-0.22157 12.128198,-0.85785 4.06598,-0.6363 7.93708,-1.63071 11.05505,-2.89978 3.11716,-1.26891 5.46842,-2.81142 6.71752,-4.46502 1.2491,-1.65359 1.38567,-3.41536 0.39773,-5.09185 -0.98874,-1.67647 -3.10598,-3.26384 -6.04026,-4.59487 -2.93347,-1.33102 -6.68078,-2.40172 -10.69405,-3.12086 -4.01326,-0.71915 -8.28353,-1.08383 -12.191768,-1.10536 -3.90816,-0.0214 -7.44079,0.30121 -10.08986,0.85725 -2.64908,0.55618 -4.40157,1.34414 -5.00943,2.18718 -0.60786,0.84305 -0.0629,1.73737 1.54987,2.49191 1.61274,0.75439 4.2944,1.36459 7.65164,1.68137 3.35732,0.31677 7.38392,0.33599 11.494218,-0.005 4.1107,-0.34088 8.29408,-1.04462 11.94475,-2.06925 3.65067,-1.02462 6.75426,-2.37015 8.86752,-3.90242 2.11245,-1.53213 3.22179,-3.24875 3.17307,-4.96276 -0.0487,-1.71401 -1.26188,-3.42147 -3.45819,-4.93788 -2.19552,-1.51627 -5.37338,-2.83707 -9.06798,-3.83453 -3.6946,-0.99747 -7.89874,-1.66809 -12.00146,-1.97876 -4.102868,-0.31067 -8.091928,-0.25971 -11.391668,0.0816 -3.29982,0.34133 -5.8965,0.97228 -7.41907,1.73843 -1.52248,0.76598 -1.96023,1.66427 -1.25605,2.50244 0.70426,0.83815 2.55467,1.61193 5.2777,2.14828 2.72303,0.53618 6.31532,0.83069 10.25335,0.78033 3.938348,-0.0505 8.211968,-0.44877 12.202078,-1.19751 3.9901,-0.74875 7.6839,-1.84875 10.54869,-3.20129 2.86479,-1.35254 4.88779,-2.95607 5.78069,-4.63958 0.8937,-1.6835 0.64852,-3.4436 -0.69243,-5.08772 -1.34175,-1.64398 -3.78245,-3.16756 -6.96272,-4.41329 -3.18106,-1.24573 -7.09688,-2.20947 -11.17723,-2.8157 -4.08035,-0.60623 -8.315318,-0.8522 -12.091388,-0.7663 -3.77606,0.0859 -7.07971,0.50385 -9.43639,1.12976 -2.35669,0.62607 -3.75402,1.45798 -3.99562,2.31292 -0.24159,0.85481 0.67982,1.72867 2.62464,2.43347 1.94489,0.70481 4.91303,1.23627 8.47018,1.45645 3.55715,0.22018 7.695878,0.12558 11.815358,-0.33035 4.11949,-0.45578 8.20623,-1.27502 11.67161,-2.39898 3.46538,-1.12381 6.29503,-2.55218 8.08403,-4.13895 1.7882,-1.5866 2.52456,-3.32899 2.10766,-5.03645 -0.4161,-1.70761 -1.99026,-3.37615 -4.48926,-4.82696 -2.49821,-1.4508 -5.91807,-2.67943 -9.76122,-3.57162 -3.84314,-0.89232 -8.0992,-1.44484 -12.15192,-1.64168 -4.052788,-0.19684 -7.888748,-0.0366 -10.954968,0.39352 -3.06629,0.43014 -5.34942,1.1293 -6.524,1.93298 -1.17459,0.80369 -1.2309,1.70883 -0.16708,2.52228 1.06389,0.81344 3.25102,1.5309 6.23928,1.98744 2.98827,0.4567 6.77311,0.64819 10.803628,0.48645 4.03051,-0.16158 8.29535,-0.67916 12.17843,-1.53777 3.88308,-0.85861 7.36923,-2.05887 9.95849,-3.48739 2.58925,-1.42868 4.26723,-3.08395 4.79834,-4.78728 0.53031,-1.70334 -0.0942,-3.45137 -1.77861,-5.0531 -1.68438,-1.60185 -4.42857,-3.05311 -7.83006,-4.20698 -3.40149,-1.15387 -7.45469,-2.00637 -11.57018,-2.49817 -4.11549,-0.49179 -8.280658,-0.62057 -11.894428,-0.43152 -3.61377,0.18891 -6.66202,0.69565 -8.70746,1.38306 -2.04553,0.6874 -3.0766,1.55334 -2.94993,2.40966 0.12667,0.85647 1.41706,1.69953 3.67846,2.34573 2.26149,0.64605 5.49246,1.09085 9.221,1.20941 3.72863,0.11856 7.946508,-0.0928 12.041228,-0.6633 4.09553,-0.57053 8.05448,-1.50192 11.30662,-2.71971 3.25294,-1.21766 5.78469,-2.7208 7.23506,-4.35273 1.44956,-1.63176 1.80736,-3.38942 1.02627,-5.080239 -0.78109,-1.69082 -2.70346,-3.31054 -5.48519,-4.68764 -2.78093,-1.37711 -6.41643,-2.50732 -10.37618,-3.29071 -3.96055,-0.78338 -8.23498,-1.21673 -12.205348,-1.30172 -3.9703,-0.0849 -7.62249,0.1799 -10.43073,0.69198 -2.80833,0.51224 -4.75961,1.27045 -5.57688,2.10189 -0.81727,0.83161 -0.49173,1.73295 0.92333,2.5119 1.41506,0.77881 3.92134,1.43082 7.15096,1.80053 3.22961,0.36972 7.17683,0.45335 11.267958,0.17838 4.09073,-0.27496 8.31325,-0.91095 12.05736,-1.87607 3.74411,-0.96511 6.99626,-2.25936 9.28841,-3.75609 2.29215,-1.49673 3.61313,-3.19381 3.77686,-4.9069 0.16372,-1.71311 -0.8362,-3.43841 -2.84962,-4.98856 -2.01262,-1.550285 -5.03874,-2.920978 -8.6343,-3.977187 -3.59637,-1.056063 -7.75419,-1.794125 -11.87128,-2.17102 -4.116768,-0.37674 -8.179788,-0.390631 -11.602438,-0.103457 -3.42265,0.287174 -6.19105,0.874933 -7.90904,1.614839 -1.718,0.740054 -2.3745,1.629481 -1.88061,2.477252 0.49381,0.847786 2.14305,1.649783 4.70291,2.228693 2.55994,0.57878 6.02796,0.93003 9.89818,0.94255 3.870308,0.0122 8.133548,-0.31708 12.171568,-1.00128 4.03802,-0.68406 7.83725,-1.723793 10.85139,-3.028874 3.01334,-1.305237 5.22802,-2.8746 6.32777,-4.542073 1.09976,-1.667024 1.075,-3.4294 -0.0639,-5.09414 -1.13889,-1.663204 -3.3951,-3.225695 -6.4364,-4.521162 -3.04129,-1.295475 -6.86287,-2.322385 -10.90888,-2.993775 -4.04601,-0.671382 -8.30518,-0.985718 -12.161268,-0.961298 -3.85608,0.0244 -7.29527,0.38757 -9.82319,0.975034 -2.52783,0.585938 -4.13178,1.394647 -4.58518,2.243038 -0.4534,0.849909 0.25142,1.736447 2.00639,2.471922 1.7549,0.733949 4.56043,1.312247 8.0056,1.588436 3.4451,0.276181 7.523048,0.248709 11.641098,-0.141914 4.11869,-0.389096 8.26533,-1.141352 11.84092,-2.209461 3.5756,-1.066591 6.56658,-2.44751 8.54406,-4.003896 1.97748,-1.556394 2.93028,-3.285218 2.72583,-4.998771 -0.20446,-1.712036 -1.57177,-3.404231 -3.89746,-4.893479 -2.3265,-1.490782 -5.60979,-2.772522 -9.37067,-3.726197 -3.76089,-0.953668 -7.99139,-1.574701 -12.07733,-1.837153 -4.085378,-0.262453 -8.013508,-0.164791 -11.217728,0.215156 -3.20414,0.379939 -5.67064,1.040646 -7.04737,1.823409 -1.37673,0.784306 -1.65346,1.686098 -0.79634,2.514648 0.85712,0.82855 2.85185,1.580805 5.68981,2.084343 2.83795,0.503547 6.5153,0.755308 10.4963,0.657654 3.980678,-0.09765 8.255098,-0.546256 12.204468,-1.341237 3.94857,-0.796516 7.55771,-1.939385 10.3083,-3.324892 2.75138,-1.385497 4.63062,-3.012073 5.37098,-4.704276 0.74116,-1.693713 0.33464,-3.450001 -1.15326,-5.078102 -1.48791,-1.626592 -4.05879,-3.120427 -7.33649,-4.328916 -3.2777,-1.206971 -7.25502,-2.124017 -11.35454,-2.682491 -4.09872,-0.558466 -8.308448,-0.753782 -12.019578,-0.624086 -3.71105,0.129696 -6.90976,0.585947 -9.13706,1.239014 -2.2273,0.653075 -3.47098,1.501466 -3.55691,2.35748 -0.0859,0.85754 0.99257,1.719666 3.07332,2.400197 2.08075,0.68054 5.16309,1.176455 8.79627,1.354974 3.63318,0.177009 7.809208,0.03363 11.922308,-0.469962 4.1131,-0.505064 8.15032,-1.371762 11.52865,-2.536007 3.37912,-1.164245 6.08498,-2.626029 7.73262,-4.232772 1.64683,-1.606759 2.22346,-3.356933 1.65162,-5.058285 -0.57104,-1.701344 -2.29375,-3.350829 -4.91495,-4.771413 -2.6204,-1.420585 -6.1345,-2.60925 -10.03116,-3.45458"
       title="t+cos(3*t) 3*sin(3*t)"
       id="path798" />
  </g>
</svg>
