<?xml version="1.0" encoding="UTF-8" standalone="no"?>
<!-- Created with Inkscape (http://www.inkscape.org/) -->

<svg
   width="210mm"
   height="297mm"
   viewBox="0 0 210 297"
   version="1.1"
   id="svg5"
   inkscape:version="1.2.1 (9c6d41e4, 2022-07-14)"
   sodipodi:docname="casket.svg"
   inkscape:export-filename="casket.png"
   inkscape:export-xdpi="96"
   inkscape:export-ydpi="96"
   xmlns:inkscape="http://www.inkscape.org/namespaces/inkscape"
   xmlns:sodipodi="http://sodipodi.sourceforge.net/DTD/sodipodi-0.dtd"
   xmlns="http://www.w3.org/2000/svg"
   xmlns:svg="http://www.w3.org/2000/svg">
  <sodipodi:namedview
     id="namedview7"
     pagecolor="#ffffff"
     bordercolor="#000000"
     borderopacity="0.25"
     inkscape:showpageshadow="2"
     inkscape:pageopacity="0.0"
     inkscape:pagecheckerboard="0"
     inkscape:deskcolor="#d1d1d1"
     inkscape:document-units="mm"
     showgrid="false"
     inkscape:zoom="0.73182862"
     inkscape:cx="724.89649"
     inkscape:cy="726.26293"
     inkscape:current-layer="layer1" />
  <defs
     id="defs2">
    <filter
       inkscape:collect="always"
       style="color-interpolation-filters:sRGB"
       id="filter4813"
       x="-0.004496421"
       y="-0.0076380442"
       width="1.0089928"
       height="1.0152761">
      <feGaussianBlur
         inkscape:collect="always"
         stdDeviation="0.05853203"
         id="feGaussianBlur4815" />
    </filter>
  </defs>
  <g
     inkscape:label="Layer 1"
     inkscape:groupmode="layer"
     id="layer1">
    <g
       id="g5823"
       inkscape:export-filename="jrcasket.png"
       inkscape:export-xdpi="96"
       inkscape:export-ydpi="96">
      <path
         id="path1054"
         style="stroke:#050804;stroke-width:1.62763;stroke-linejoin:bevel"
         inkscape:transform-center-x="-1.1643677"
         inkscape:transform-center-y="-0.87362687"
         d="M 78.003507 35.478455 C 56.220098 75.568416 65.742512 55.767013 45.799788 98.021924 L 45.707804 160.56488 C 56.642323 222.92069 48.536828 185.21027 71.010653 286.58096 L 109.74731 285.65078 L 116.18826 285.65078 L 116.18826 35.478455 L 110.11576 35.478455 L 78.003507 35.478455 z M 117.62745 35.478455 L 117.62745 285.65078 L 124.0684 285.65078 L 162.80505 286.58096 C 185.27887 185.21027 177.17391 222.92069 188.10841 160.56488 L 188.01591 98.021924 C 168.07324 55.767013 177.59559 75.568416 155.81219 35.478455 L 123.70046 35.478455 L 117.62745 35.478455 z " />
      <path
         id="path1061"
         style="fill:#a22e2e;fill-opacity:1;stroke:#050804;stroke-width:1.52307;stroke-linejoin:bevel"
         inkscape:transform-center-x="-1.0895642"
         inkscape:transform-center-y="-0.81750037"
         d="M 80.428026,43.600278 C 60.044032,81.114768 68.954705,62.585452 50.293147,102.12581 l -0.08608,58.52506 c 10.232061,58.34993 2.647281,23.06211 23.677336,117.92052 l 36.248117,-0.87043 h 6.02717 V 43.600278 h -5.68239 z m 37.078414,0 V 277.70096 h 6.02716 l 36.24812,0.87043 c 21.03005,-94.85841 13.44578,-59.57059 23.67782,-117.92052 l -0.0866,-58.52506 C 164.71147,62.585452 173.62209,81.114768 153.2381,43.600278 h -30.0488 z" />
      <path
         id="path1063"
         style="fill:#0c0c0c;fill-opacity:1;stroke:#050804;stroke-width:1.42896;stroke-linejoin:bevel"
         inkscape:transform-center-x="-1.0222457"
         inkscape:transform-center-y="-0.76699037"
         d="M 82.610093,50.909918 C 63.485573,86.106485 71.845679,68.722047 54.33717,105.81931 l -0.08076,54.90895 c 9.599848,54.74464 2.483712,21.63716 22.214374,110.63451 l 34.008436,-0.81665 h 5.65477 V 50.909918 h -5.33129 z m 34.787437,0 V 270.54612 h 5.65475 l 34.00845,0.81665 c 19.73065,-88.99735 12.615,-55.88987 22.21483,-110.63451 l -0.0813,-54.90895 C 161.68588,68.722047 170.04594,86.106485 150.92142,50.909918 h -28.19216 z" />
      <path
         id="path5461"
         style="fill:#0c0c0c;fill-opacity:1;stroke:#b1a663;stroke-width:1.25485;stroke-linejoin:bevel;stroke-opacity:1"
         inkscape:transform-center-x="-0.89771222"
         inkscape:transform-center-y="-0.67353463"
         d="m 87.870766,60.836721 c -16.79427,30.908001 -9.45265,15.642261 -24.827824,48.219369 l -0.0172,11.74614 H 117.31015 V 60.836721 h -4.68185 z m 30.548874,0 v 59.965509 h 54.28439 l -0.0172,-11.74614 C 157.31178,76.478982 164.65327,91.744722 147.85901,60.836721 h -24.75703 z" />
      <circle
         style="fill:none;fill-opacity:1;stroke:#ebf4e8;stroke-width:1.21;stroke-linejoin:bevel;stroke-dasharray:none;stroke-opacity:1"
         id="path1117"
         cx="116.9081"
         cy="94.373245"
         r="25.533445" />
      <circle
         style="fill:#003658;fill-opacity:0.55421686;stroke:#304f26;stroke-width:1.0396;stroke-linejoin:bevel;stroke-dasharray:none;stroke-opacity:1"
         id="circle5375"
         cx="116.9081"
         cy="94.373245"
         r="21.940228" />
      <g
         id="g5381"
         transform="rotate(97.526362,-0.52016741,128.43873)"
         style="fill:#ff0b5f;fill-opacity:0.822289">
        <path
           style="opacity:0.782967;fill:#ff0b5f;fill-opacity:0.822289;stroke:none;stroke-width:1.522;stroke-linejoin:bevel;stroke-dasharray:none;stroke-opacity:1;filter:url(#filter4813)"
           id="path4031"
           sodipodi:type="arc"
           sodipodi:cx="-53.949085"
           sodipodi:cy="8.5828094"
           sodipodi:rx="20.435259"
           sodipodi:ry="18.391733"
           sodipodi:start="0"
           sodipodi:end="2.1280116"
           sodipodi:open="true"
           sodipodi:arc-type="arc"
           d="M -33.513826,8.5828094 A 20.435259,18.391733 0 0 1 -44.030348,24.662827 20.435259,18.391733 0 0 1 -64.755756,24.192444"
           transform="rotate(-5.898236,-49.134792,17.778676)" />
        <path
           style="opacity:0.782967;fill:#ff0b5f;fill-opacity:0.822289;stroke:none;stroke-width:1.522;stroke-linejoin:bevel;stroke-dasharray:none;stroke-opacity:1;filter:url(#filter4813)"
           id="path5369"
           sodipodi:type="arc"
           sodipodi:cx="-53.949085"
           sodipodi:cy="8.5828094"
           sodipodi:rx="20.435259"
           sodipodi:ry="18.391733"
           sodipodi:start="0"
           sodipodi:end="2.1280116"
           sodipodi:open="true"
           sodipodi:arc-type="arc"
           d="M -33.513826,8.5828094 A 20.435259,18.391733 0 0 1 -44.030348,24.662827 20.435259,18.391733 0 0 1 -64.755756,24.192444"
           transform="rotate(-50.898236,-49.134792,17.778676)" />
        <path
           style="opacity:0.782967;fill:#ff0b5f;fill-opacity:0.822289;stroke:none;stroke-width:1.522;stroke-linejoin:bevel;stroke-dasharray:none;stroke-opacity:1;filter:url(#filter4813)"
           id="path5371"
           sodipodi:type="arc"
           sodipodi:cx="-53.949085"
           sodipodi:cy="8.5828094"
           sodipodi:rx="20.435259"
           sodipodi:ry="18.391733"
           sodipodi:start="0"
           sodipodi:end="2.1280116"
           sodipodi:open="true"
           sodipodi:arc-type="arc"
           d="M -33.513826,8.5828094 A 20.435259,18.391733 0 0 1 -44.030348,24.662827 20.435259,18.391733 0 0 1 -64.755756,24.192444"
           transform="rotate(-98.866313,-49.134792,17.778676)" />
        <path
           style="opacity:0.782967;fill:#ff0b5f;fill-opacity:0.822289;stroke:none;stroke-width:1.522;stroke-linejoin:bevel;stroke-dasharray:none;stroke-opacity:1;filter:url(#filter4813)"
           id="path5373"
           sodipodi:type="arc"
           sodipodi:cx="-53.949085"
           sodipodi:cy="8.5828094"
           sodipodi:rx="20.435259"
           sodipodi:ry="18.391733"
           sodipodi:start="0"
           sodipodi:end="2.1280116"
           sodipodi:open="true"
           sodipodi:arc-type="arc"
           d="M -33.513826,8.5828094 A 20.435259,18.391733 0 0 1 -44.030348,24.662827 20.435259,18.391733 0 0 1 -64.755756,24.192444"
           transform="rotate(-144.28639,-49.134792,17.778676)" />
      </g>
      <path
         id="path5459"
         style="fill:#0c0c0c;fill-opacity:1;stroke:#b1a663;stroke-width:1.3203;stroke-linejoin:bevel;stroke-opacity:1"
         inkscape:transform-center-x="-0.94452397"
         inkscape:transform-center-y="-0.708668"
         d="M 116.80248,126.27746 H 59.68673 l -0.0568,38.37462 c 8.86985,50.58171 2.29513,19.99199 20.52543,102.22173 l 31.4222,-0.75487 h 5.22494 z m 1.16741,0 v 139.84148 h 5.22494 l 31.42221,0.75487 c 18.23028,-82.22974 11.65558,-51.64002 20.52542,-102.22173 l -0.0568,-38.37462 z" />
    </g>
  </g>
</svg>
